<svg className="projects__icon2" id="Glyph" height="512" viewBox="0 0 128 128" width="512" xmlns="http://www.w3.org/2000/svg"><path d="m95.61 74.84a1 1 0 0 0 -.27-.45l-11-10.18h-3.43l-4.34 7.51 11.5 6.77 6.49 14.11a3 3 0 0 0 5.82-1.73z"/><path d="m43.63 64.21-11 10.18a1 1 0 0 0 -.27.45l-4.76 16.16a3.48 3.48 0 0 0 -.07.64 3 3 0 0 0 5.89 1l6.52-14.15 11.42-6.72-4.36-7.56z"/><path d="m64 49.56a6.89 6.89 0 1 0 6.88 6.88 6.89 6.89 0 0 0 -6.88-6.88z"/><path d="m126.14 35.72h-.12l-9.51-2a16.34 16.34 0 0 0 -10 1.07l-2.06.92v-1.34a1 1 0 0 0 -2 0v1.33l-2.05-.92a16.39 16.39 0 0 0 -10-1.07l-9.56 2c-2 .51-2 2.47-1.94 3.2v.24a2.49 2.49 0 0 0 2.48 2.48h21.08v3.06h-1.46a2 2 0 0 0 -2 1.9l-.29 5.12h-19l-5.24-9.07a4 4 0 0 0 -3.44-2h-14.19a4 4 0 0 0 -3.45 2l-5.23 9.06h-19l-.3-5.12a2 2 0 0 0 -2-1.9h-1.28v-3.06h21.08a2.49 2.49 0 0 0 2.49-2.48v-.14a3 3 0 0 0 -1.86-3.24h-.12l-9.52-2a16.31 16.31 0 0 0 -10 1.07l-2.06.92v-1.38a1 1 0 0 0 -2 0v1.33l-2-.92a16.42 16.42 0 0 0 -10-1.07l-9.59 1.99c-2 .51-2 2.47-1.95 3.2v.24a2.48 2.48 0 0 0 2.45 2.48h21.08v3.06h-1.42a2 2 0 0 0 -2 1.9l-.89 15.29a2.24 2.24 0 0 0 2.24 2.37h6.06a2.24 2.24 0 0 0 1.63-.7 2.26 2.26 0 0 0 .6-1.33h18.36l5.23 9.07a4 4 0 0 0 3.45 2h14.24a4 4 0 0 0 3.44-2l5.24-9.07h18.37a2.23 2.23 0 0 0 2.23 2h6.06a2.24 2.24 0 0 0 1.63-.7 2.3 2.3 0 0 0 .61-1.67l-.9-15.29a2 2 0 0 0 -2-1.9h-1.32v-3.03h21.09a2.48 2.48 0 0 0 2.47-2.48v-.14a3 3 0 0 0 -1.86-3.28zm-62.14 29.61a8.89 8.89 0 1 1 8.88-8.89 8.9 8.9 0 0 1 -8.88 8.89z"/></svg>