<svg width="171" height="171" viewBox="0 0 171 171" fill="none" xmlns="http://www.w3.org/2000/svg">
    <g id="Durable">
        <path id="Vector 12" d="M161 113V128"/>
        <path id="Vector 10" d="M152.392 76L159.928 102.138"/>
        <g id="Ellipse 2">
            <mask id="path-3-inside-1">
                <path d="M121.05 116.386C126.696 110.107 130.348 102.357 131.558 94.0825C132.767 85.8081 131.483 77.3684 127.862 69.7958C124.242 62.2233 118.441 55.8463 111.17 51.4448C103.899 47.0433 95.4728 44.8082 86.9224 45.0129C78.3721 45.2176 70.0682 47.8532 63.0264 52.5974C55.9847 57.3415 50.5104 63.9885 47.2733 71.7252C44.0361 79.4619 43.1765 87.9529 44.7994 96.1596C46.4224 104.366 50.4577 111.933 56.4116 117.933L64.236 110.519C59.7568 106.005 56.7211 100.312 55.5001 94.1385C54.2792 87.9646 54.9259 81.5768 57.3612 75.7564C59.7965 69.9361 63.9148 64.9355 69.2123 61.3665C74.5098 57.7975 80.7569 55.8147 87.1894 55.6607C93.6218 55.5067 99.9607 57.1882 105.431 60.4994C110.901 63.8107 115.265 68.6081 117.989 74.305C120.713 80.0018 121.679 86.351 120.768 92.5759C119.858 98.8008 117.111 104.632 112.864 109.355L121.05 116.386Z"/>
            </mask>
            <path d="M121.05 116.386C126.696 110.107 130.348 102.357 131.558 94.0825C132.767 85.8081 131.483 77.3684 127.862 69.7958C124.242 62.2233 118.441 55.8463 111.17 51.4448C103.899 47.0433 95.4728 44.8082 86.9224 45.0129C78.3721 45.2176 70.0682 47.8532 63.0264 52.5974C55.9847 57.3415 50.5104 63.9885 47.2733 71.7252C44.0361 79.4619 43.1765 87.9529 44.7994 96.1596C46.4224 104.366 50.4577 111.933 56.4116 117.933L64.236 110.519C59.7568 106.005 56.7211 100.312 55.5001 94.1385C54.2792 87.9646 54.9259 81.5768 57.3612 75.7564C59.7965 69.9361 63.9148 64.9355 69.2123 61.3665C74.5098 57.7975 80.7569 55.8147 87.1894 55.6607C93.6218 55.5067 99.9607 57.1882 105.431 60.4994C110.901 63.8107 115.265 68.6081 117.989 74.305C120.713 80.0018 121.679 86.351 120.768 92.5759C119.858 98.8008 117.111 104.632 112.864 109.355L121.05 116.386Z" />
        </g>
        <g id="Ellipse 3">
            <mask id="path-4-inside-2">
                <path d="M110.526 83.9055C111.51 88.6217 110.954 93.5291 108.94 97.9056C106.926 102.282 103.56 105.897 99.3385 108.217C95.1166 110.538 90.2613 111.442 85.4871 110.797C80.7128 110.152 76.2716 107.992 72.8171 104.634C69.3626 101.276 67.0771 96.8976 66.297 92.1435C65.5168 87.3894 66.2832 82.5104 68.4834 78.2245C70.6836 73.9386 74.2013 70.472 78.5191 68.3349C82.8368 66.1978 87.7265 65.503 92.4686 66.3528L92.0043 68.9439C87.817 68.1936 83.4994 68.8071 79.6868 70.6942C75.8742 72.5812 72.768 75.6422 70.8253 79.4267C68.8825 83.2112 68.2058 87.5193 68.8946 91.7172C69.5835 95.9151 71.6016 99.781 74.6519 102.746C77.7023 105.711 81.6239 107.619 85.8396 108.189C90.0553 108.758 94.3425 107.96 98.0704 105.911C101.798 103.861 104.77 100.67 106.548 96.8052C108.327 92.9407 108.818 88.6074 107.949 84.4431L110.526 83.9055Z"/>
            </mask>
            <path d="M110.526 83.9055C111.51 88.6217 110.954 93.5291 108.94 97.9056C106.926 102.282 103.56 105.897 99.3385 108.217C95.1166 110.538 90.2613 111.442 85.4871 110.797C80.7128 110.152 76.2716 107.992 72.8171 104.634C69.3626 101.276 67.0771 96.8976 66.297 92.1435C65.5168 87.3894 66.2832 82.5104 68.4834 78.2245C70.6836 73.9386 74.2013 70.472 78.5191 68.3349C82.8368 66.1978 87.7265 65.503 92.4686 66.3528L92.0043 68.9439C87.817 68.1936 83.4994 68.8071 79.6868 70.6942C75.8742 72.5812 72.768 75.6422 70.8253 79.4267C68.8825 83.2112 68.2058 87.5193 68.8946 91.7172C69.5835 95.9151 71.6016 99.781 74.6519 102.746C77.7023 105.711 81.6239 107.619 85.8396 108.189C90.0553 108.758 94.3425 107.96 98.0704 105.911C101.798 103.861 104.77 100.67 106.548 96.8052C108.327 92.9407 108.818 88.6074 107.949 84.4431L110.526 83.9055Z"/>
        </g>
        <path id="Ellipse 4" d="M94 88.5C94 90.9052 91.8451 93 89 93C86.1549 93 84 90.9052 84 88.5C84 86.0948 86.1549 84 89 84C91.8451 84 94 86.0948 94 88.5Z"/>
        <path id="Ellipse 8" d="M166 107C166 109.688 163.614 112 160.5 112C157.386 112 155 109.688 155 107C155 104.312 157.386 102 160.5 102C163.614 102 166 104.312 166 107Z"/>
        <path id="Ellipse 7" d="M20 107C20 109.688 17.6144 112 14.5 112C11.3856 112 9 109.688 9 107C9 104.312 11.3856 102 14.5 102C17.6144 102 20 104.312 20 107Z"/>
        <path id="Ellipse 6" d="M156 71C156 73.6876 153.614 76 150.5 76C147.386 76 145 73.6876 145 71C145 68.3124 147.386 66 150.5 66C153.614 66 156 68.3124 156 71Z"/>
        <path id="Ellipse 5" d="M32 71C32 73.6876 29.6144 76 26.5 76C23.3856 76 21 73.6876 21 71C21 68.3124 23.3856 66 26.5 66C29.6144 66 32 68.3124 32 71Z" />
        <path id="Vector 5" d="M91 83.8614C93.3111 80.4357 98.1933 73.67 99.2333 74.0125C100.533 74.4407 104 77.01 104 77.8665C104 78.5516 103.422 79.5793 103.133 80.0075C101.256 82.5768 97.3267 87.801 96.6333 88.1436C95.94 88.4861 94.6111 88.8573 94.0333 89"/>
        <path id="Vector 6" d="M87.7652 92.998C85.4119 96.4288 80.447 103.2 79.4132 102.84C78.121 102.391 74.694 99.7489 74.7055 98.8836C74.7146 98.1914 75.3052 97.1606 75.5994 96.7318C77.5085 94.1607 81.501 88.9341 82.1979 88.5972C82.8947 88.2602 84.2265 87.9027 84.8052 87.7662"/>
        <path id="Vector 7" d="M46 77L32 72" />
        <path id="Vector 9" d="M23.8857 75.9649L16 102" />
        <path id="Vector 8" d="M130 77L144.914 72"/>
        <path id="Vector 11" d="M14.5 112.5V127.5"/>
    </g>
    <defs>
        <clipPath id="clip0">
            <rect width="171" height="171" fill="white"/>
        </clipPath>
    </defs>
</svg>
