<svg width="200" height="171" viewBox="0 0 200 171" fill="none" xmlns="http://www.w3.org/2000/svg">
    <g id="mbzirc">
        <g id="robot">
            <path id="Vector 19" d="M134.548 115.525H128.568V93.25L144.514 70.975H192.349V115.525H186.37M167.767 115.525H152.486" />
            <rect id="Rectangle 3" x="121.26" y="105.4" width="7.9726" height="8.1" />
            <rect id="Rectangle 4" x="191.685" y="106.75" width="5.31507" height="5.4" />
            <path id="Ellipse 15" d="M187.699 116.2C187.699 122.165 182.939 127 177.069 127C171.198 127 166.438 122.165 166.438 116.2C166.438 110.235 171.198 105.4 177.069 105.4C182.939 105.4 187.699 110.235 187.699 116.2ZM169.912 116.2C169.912 120.216 173.116 123.471 177.069 123.471C181.021 123.471 184.225 120.216 184.225 116.2C184.225 112.184 181.021 108.929 177.069 108.929C173.116 108.929 169.912 112.184 169.912 116.2Z" />
            <path id="Ellipse 17" d="M154.479 116.2C154.479 122.165 149.72 127 143.849 127C137.978 127 133.219 122.165 133.219 116.2C133.219 110.235 137.978 105.4 143.849 105.4C149.72 105.4 154.479 110.235 154.479 116.2ZM136.693 116.2C136.693 120.216 139.897 123.471 143.849 123.471C147.802 123.471 151.006 120.216 151.006 116.2C151.006 112.184 147.802 108.929 143.849 108.929C139.897 108.929 136.693 112.184 136.693 116.2Z" />
            <ellipse id="Ellipse 18" cx="143.849" cy="116.2" rx="3.9863" ry="4.05" />
            <ellipse id="Ellipse 19" cx="177.069" cy="116.2" rx="3.9863" ry="4.05" />
            <path id="Ellipse 16" d="M187.699 116.2C187.699 122.165 182.939 127 177.069 127C171.198 127 166.438 122.165 166.438 116.2C166.438 110.235 171.198 105.4 177.069 105.4C182.939 105.4 187.699 110.235 187.699 116.2ZM169.912 116.2C169.912 120.216 173.116 123.471 177.069 123.471C181.021 123.471 184.225 120.216 184.225 116.2C184.225 112.184 181.021 108.929 177.069 108.929C173.116 108.929 169.912 112.184 169.912 116.2Z" />
            <rect id="Rectangle 5" x="166.438" y="93.25" width="21.2603" height="2.7" />
            <rect id="Rectangle 6" x="145.178" y="66.25" width="46.5068" height="2.7" />
            <ellipse id="Ellipse 20" cx="168.432" cy="60.175" rx="5.97945" ry="6.075" />
            <ellipse id="Ellipse 21" cx="152.486" cy="25.075" rx="5.97945" ry="6.075" />
            <ellipse id="Ellipse 22" cx="108.637" cy="37.225" rx="5.97945" ry="6.075" />
            <rect id="Rectangle 7" width="3.99712" height="29.6217" transform="matrix(0.909279 -0.416188 0.405362 0.914156 153.151 28.7635)" />
            <rect id="Rectangle 8" width="4.04579" height="41.9854" transform="matrix(0.254103 0.967177 -0.965139 0.261736 149.823 24.4)" />
            <rect id="Rectangle 11" width="4.04579" height="41.9854" transform="matrix(0.254103 0.967177 -0.965139 0.261736 149.823 24.4)" />
            <rect id="Rectangle 9" width="4.04579" height="7.61394" transform="matrix(0.254103 0.967177 -0.965139 0.261736 103.362 37.9)" />
            <path id="Ellipse 23" d="M85.0593 35.2878C86.4417 34.7644 87.9164 34.5399 89.3893 34.6288C90.8622 34.7176 92.3009 35.1177 93.6136 35.8037C94.9262 36.4896 96.0839 37.4462 97.0128 38.6125C97.9417 39.7787 98.6213 41.1289 99.0083 42.5769C99.3952 44.0249 99.481 45.5388 99.2602 47.0219C99.0393 48.5051 98.5167 49.9249 97.7256 51.1907C96.9345 52.4565 95.8925 53.5404 94.6659 54.3733C93.4393 55.2063 92.0552 55.7698 90.602 56.028L90.0383 52.7607C91.0448 52.5819 92.0034 52.1915 92.8529 51.6147C93.7024 51.0378 94.4242 50.2871 94.9721 49.4104C95.5199 48.5337 95.8819 47.5504 96.0349 46.5232C96.1878 45.4959 96.1284 44.4474 95.8604 43.4446C95.5924 42.4417 95.1217 41.5066 94.4784 40.6989C93.835 39.8911 93.0332 39.2286 92.1241 38.7535C91.215 38.2784 90.2185 38.0013 89.1984 37.9398C88.1783 37.8782 87.1569 38.0337 86.1995 38.3962L85.0593 35.2878Z" />
        </g>
        <g id="wall">
            <rect id="Rectangle 13" x="3" y="105.4" width="31.8904" height="21.6" />
            <rect id="Rectangle 15" x="74.7534" y="105.4" width="31.8904" height="21.6" />
            <rect id="Rectangle 16" x="21.6027" y="79.75" width="31.8904" height="21.6" />
            <rect id="Rectangle 18" x="40.2055" y="54.1" width="31.8904" height="21.6" />
            <rect id="Rectangle 17" x="57.4795" y="79.75" width="31.8904" height="21.6" />
            <rect id="Rectangle 14" x="38.8767" y="105.4" width="31.8904" height="21.6" />
        </g>
        <g id="text">
            <path id="Vector 21" d="M176.155 81.4659C176.155 79.875 174.488 79.875 173.377 79.875C171.988 79.875 171.293 79.875 171.293 80.6705C171.293 81.3068 171.293 82.5265 171.293 83.0568C171.525 83.322 171.571 83.8523 172.682 83.8523C173.794 83.8523 174.303 83.8523 174.071 83.8523C175.461 83.8523 176.155 84.0114 176.155 84.6477C176.155 85.4432 176.155 87.0341 176.155 87.8295C176.155 88.625 174.766 88.625 174.071 88.625C173.377 88.625 171.293 88.625 171.293 87.8295C171.293 87.1932 171.293 87.2992 171.293 87.0341" />
            <path id="Vector 22" d="M182 88.75V80H184.778C185.473 80.2431 186.862 80.875 186.862 81.4583C186.862 82.1875 186.862 82.9167 186.862 83.6458C186.862 84.375 186.167 85.1042 185.473 85.1042C184.917 85.1042 184.315 85.1042 184.084 85.1042L186.862 88.75" />
            <path id="Vector 23" d="M165.5 89.5V79" />
        </g>
    </g>
</svg>
