<svg width="200" height="171" viewBox="0 0 200 171" fill="none" xmlns="http://www.w3.org/2000/svg">
    <g id="mbzirc">
        <g id="robot">
            <path id="Vector 19" d="M134.431 158.525H128.451V136.25L144.396 113.975H192.232V158.525H186.253M167.65 158.525H152.369" />
            <rect id="Rectangle 3" x="121.143" y="148.4" width="7.9726" height="8.1" />
            <rect id="Rectangle 4" x="191.568" y="149.75" width="5.31507" height="5.4" />
            <path id="Ellipse 15" d="M187.581 159.2C187.581 165.165 182.822 170 176.951 170C171.08 170 166.321 165.165 166.321 159.2C166.321 153.235 171.08 148.4 176.951 148.4C182.822 148.4 187.581 153.235 187.581 159.2ZM169.795 159.2C169.795 163.216 172.999 166.471 176.951 166.471C180.904 166.471 184.108 163.216 184.108 159.2C184.108 155.184 180.904 151.929 176.951 151.929C172.999 151.929 169.795 155.184 169.795 159.2Z" />
            <path id="Ellipse 17" d="M154.362 159.2C154.362 165.165 149.603 170 143.732 170C137.861 170 133.102 165.165 133.102 159.2C133.102 153.235 137.861 148.4 143.732 148.4C149.603 148.4 154.362 153.235 154.362 159.2ZM136.575 159.2C136.575 163.216 139.78 166.471 143.732 166.471C147.684 166.471 150.889 163.216 150.889 159.2C150.889 155.184 147.684 151.929 143.732 151.929C139.78 151.929 136.575 155.184 136.575 159.2Z" />
            <ellipse id="Ellipse 18" cx="143.732" cy="159.2" rx="3.9863" ry="4.05" />
            <ellipse id="Ellipse 19" cx="176.951" cy="159.2" rx="3.9863" ry="4.05" />
            <path id="Ellipse 16" d="M187.581 159.2C187.581 165.165 182.822 170 176.951 170C171.08 170 166.321 165.165 166.321 159.2C166.321 153.235 171.08 148.4 176.951 148.4C182.822 148.4 187.581 153.235 187.581 159.2ZM169.795 159.2C169.795 163.216 172.999 166.471 176.951 166.471C180.904 166.471 184.108 163.216 184.108 159.2C184.108 155.184 180.904 151.929 176.951 151.929C172.999 151.929 169.795 155.184 169.795 159.2Z" />
            <rect id="Rectangle 5" x="166.321" y="136.25" width="21.2603" height="2.7" />
            <rect id="Rectangle 6" x="145.061" y="109.25" width="46.5068" height="2.7" />
            <ellipse id="Ellipse 20" cx="168.314" cy="103.175" rx="5.97945" ry="6.075" />
            <ellipse id="Ellipse 21" cx="152.369" cy="68.075" rx="5.97945" ry="6.075" />
            <ellipse id="Ellipse 22" cx="108.52" cy="80.225" rx="5.97945" ry="6.075" />
            <rect id="Rectangle 7" width="3.99712" height="25.1757" transform="matrix(0.909279 -0.416188 0.405362 0.914156 154.27 74.5528)" />
            <path id="Rectangle 11" d="M145.751 67.9882L146.779 71.9012L115.15 80.4787L114.654 78.8226L114.152 76.8231L145.751 67.9882Z" />
            <rect id="Rectangle 9" width="4.04579" height="3.95808" transform="matrix(0.374473 0.927238 -0.92425 0.381787 102.008 80.9908)" />
            <path id="Ellipse 23" d="M84.9421 78.2878C86.3244 77.7644 87.7992 77.5399 89.2721 77.6288C90.745 77.7176 92.1837 78.1177 93.4963 78.8037C94.8089 79.4896 95.9667 80.4462 96.8956 81.6125C97.8244 82.7787 98.5041 84.1289 98.891 85.5769C99.278 87.0249 99.3638 88.5388 99.1429 90.0219C98.9221 91.5051 98.3994 92.9249 97.6084 94.1907C96.8173 95.4565 95.7752 96.5404 94.5486 97.3733C93.3221 98.2063 91.938 98.7698 90.4847 99.028L89.9211 95.7607C90.9276 95.5819 91.8862 95.1915 92.7357 94.6147C93.5852 94.0378 94.3069 93.2871 94.8548 92.4104C95.4027 91.5337 95.7647 90.5504 95.9176 89.5232C96.0706 88.4959 96.0112 87.4474 95.7432 86.4446C95.4752 85.4417 95.0045 84.5066 94.3611 83.6989C93.7178 82.8911 92.916 82.2286 92.0068 81.7535C91.0977 81.2784 90.1013 81.0013 89.0812 80.9398C88.061 80.8782 87.0397 81.0337 86.0823 81.3962L84.9421 78.2878Z" />
        </g>
        <g id="wall">
            <rect id="Rectangle 13" x="4" y="149.4" width="31.8904" height="21.6" />
            <rect id="Rectangle 15" x="75.7534" y="149.4" width="31.8904" height="21.6" />
            <rect id="Rectangle 16" x="22.6027" y="123.75" width="31.8904" height="21.6" />
            <rect id="Rectangle 18" x="41.2055" y="98.1" width="31.8904" height="21.6" />
            <rect id="Rectangle 17" x="58.4795" y="123.75" width="31.8904" height="21.6" />
            <rect id="Rectangle 14" x="39.8767" y="149.4" width="31.8904" height="21.6" />
        </g>
        <g id="text">
            <path id="Vector 21" d="M177.155 125.466C177.155 123.875 175.488 123.875 174.377 123.875C172.988 123.875 172.293 123.875 172.293 124.67C172.293 125.307 172.293 126.527 172.293 127.057C172.525 127.322 172.571 127.852 173.682 127.852C174.794 127.852 175.303 127.852 175.071 127.852C176.461 127.852 177.155 128.011 177.155 128.648C177.155 129.443 177.155 131.034 177.155 131.83C177.155 132.625 175.766 132.625 175.071 132.625C174.377 132.625 172.293 132.625 172.293 131.83C172.293 131.193 172.293 131.299 172.293 131.034" />
            <path id="Vector 22" d="M183 132.75V124H185.778C186.473 124.243 187.862 124.875 187.862 125.458C187.862 126.188 187.862 126.917 187.862 127.646C187.862 128.375 187.167 129.104 186.473 129.104C185.917 129.104 185.315 129.104 185.084 129.104L187.862 132.75" />
            <path id="Vector 23" d="M166.5 133.5V123" />
        </g>
    </g>
</svg>
