<svg width="171" height="171" viewBox="0 0 171 171" fill="none" xmlns="http://www.w3.org/2000/svg">
    <g id="SciRoc">
        <path id="Vector 13" d="M2 122.5H12V97L29.5 79V113.5H21V103.5L45 79L70.5 103.5V119.5H65V61.5H81V110H75.5V55.5L94.5 43.5V103.5H84.5V99H99.5V65.5H110.5V118.5H88V112H113.5V76.5H125V116.5H119V90H138V122.5H165M105 53.5V65.5M119 67V76"/>
        <g id="Robot">
            <rect id="Rectangle 1" x="148.5" y="95.5" width="16" height="11" rx="3.5"/>
            <path id="Ellipse 9" d="M166.5 101C166.5 101.768 166.343 102.438 166.113 102.898C165.89 103.344 165.666 103.477 165.536 103.497C165.534 103.494 165.533 103.491 165.532 103.488C165.485 103.381 165.45 103.179 165.439 102.855C165.429 102.543 165.443 102.177 165.461 101.768C165.463 101.734 165.464 101.7 165.466 101.666C165.482 101.293 165.5 100.892 165.5 100.5C165.5 100.07 165.479 99.6938 165.461 99.3818C165.442 99.0592 165.43 98.8299 165.439 98.6543C165.443 98.5783 165.45 98.5302 165.456 98.5014C165.468 98.5006 165.482 98.5 165.5 98.5C165.623 98.5 165.869 98.6125 166.113 99.1023C166.343 99.5621 166.5 100.232 166.5 101ZM165.416 98.5078C165.416 98.5077 165.417 98.5073 165.419 98.5066C165.417 98.5075 165.416 98.5079 165.416 98.5078Z"/>
            <path id="Ellipse 10" d="M147.5 101C147.5 101.41 147.519 101.801 147.537 102.146C147.537 102.162 147.538 102.177 147.539 102.193C147.557 102.557 147.571 102.857 147.561 103.102C147.552 103.329 147.524 103.447 147.501 103.5C147.501 103.5 147.5 103.5 147.5 103.5C147.377 103.5 147.131 103.387 146.887 102.898C146.657 102.438 146.5 101.768 146.5 101C146.5 100.232 146.657 99.5621 146.887 99.1023C147.131 98.6125 147.377 98.5 147.5 98.5C147.5 98.5 147.501 98.5 147.501 98.5C147.524 98.5535 147.552 98.6712 147.561 98.8984C147.571 99.1432 147.557 99.4428 147.539 99.8074C147.538 99.8228 147.537 99.8384 147.537 99.8539C147.519 100.199 147.5 100.59 147.5 101Z"/>
            <circle id="Ellipse 11" cx="156" cy="88" r="2"/>
            <path id="Vector 14" d="M156 88.5V95.5"/>
            <circle id="Ellipse 12" cx="153" cy="99" r="2"/>
            <circle id="Ellipse 13" cx="160" cy="99" r="2"/>
            <path id="Vector 15" d="M152 104H161" stroke="#CACACA"/>
            <path id="Rectangle 2" d="M148.5 107.5H164.5V121.5H148.5V107.5Z"/>
            <path id="Vector 16" d="M148.5 107.5L144.857 112.333M142.786 115C142.786 115 140.024 113.154 144.857 112.333M144.857 112.333L146.238 115"/>
            <path id="Vector 17" d="M164.5 107.5L167.643 111.833M169.714 114.5C169.714 114.5 172.476 112.654 167.643 111.833M167.643 111.833L166.262 114.5"/>
        </g>
    </g>
</svg>
