<svg width="200" height="171" viewBox="0 0 200 171" fill="none" xmlns="http://www.w3.org/2000/svg">
    <g id="SciRoc2">
        <path id="Vector 13" d="M-2 124H10.7972V89.1392L33.1923 64.5316V111.696H22.3147V98.0253L53.028 64.5316L80.542 98.0253V119.899H66.465V40.6076H99.0979V106.911H88V32L116.374 16V124H181"/>
        <g id="Robot">
            <rect id="Rectangle 1" x="140.025" y="51.75" width="40.4939" height="31.3333" rx="3.5"/>
            <path id="Ellipse 9" d="M185.401 67.4166C185.401 69.5944 185 71.5419 184.373 72.9261C183.725 74.3562 182.933 75 182.24 75C182.099 75 182.006 74.9605 181.929 74.8954C181.842 74.8222 181.748 74.6922 181.662 74.4723C181.486 74.0223 181.397 73.3358 181.371 72.4443C181.346 71.5645 181.382 70.5423 181.425 69.4462C181.429 69.3562 181.433 69.2656 181.436 69.1746C181.477 68.1652 181.519 67.1045 181.519 66.0694C181.519 64.939 181.469 63.9483 181.425 63.1077L181.425 63.1045C181.381 62.2556 181.346 61.5826 181.371 61.0505C181.396 60.5039 181.483 60.2111 181.598 60.0554C181.682 59.9419 181.832 59.8333 182.24 59.8333C182.933 59.8333 183.725 60.4771 184.373 61.9072C185 63.2914 185.401 65.2389 185.401 67.4166Z"/>
            <path id="Ellipse 10" d="M139.025 67.4166C139.025 68.4993 139.072 69.5319 139.114 70.4654C139.116 70.5057 139.118 70.5457 139.12 70.5855C139.163 71.5578 139.199 72.4073 139.174 73.1145C139.148 73.8353 139.06 74.3322 138.904 74.6371C138.831 74.7794 138.752 74.8622 138.672 74.9122C138.594 74.9616 138.481 75 138.305 75C137.612 75 136.819 74.3562 136.172 72.9261C135.545 71.5419 135.144 69.5944 135.144 67.4166C135.144 65.2389 135.545 63.2914 136.172 61.9072C136.819 60.4771 137.612 59.8333 138.305 59.8333C138.481 59.8333 138.594 59.8717 138.672 59.9211C138.752 59.9711 138.831 60.0539 138.904 60.1962C139.06 60.5011 139.148 60.998 139.174 61.7187C139.199 62.426 139.163 63.2755 139.12 64.2478C139.118 64.2876 139.116 64.3276 139.114 64.3679C139.072 65.3014 139.025 66.334 139.025 67.4166Z"/>
            <ellipse id="Ellipse 11" cx="159.052" cy="32.3889" rx="4.88164" ry="5.38889"/>
            <path id="Vector 14" d="M159.052 33.7361V52.5972"/>
            <ellipse id="Ellipse 12" cx="151.73" cy="62.0278" rx="4.88164" ry="5.38889"/>
            <ellipse id="Ellipse 13" cx="168.815" cy="62.0278" rx="4.88164" ry="5.38889"/>
            <path id="Vector 15" d="M149.289 75.5H171.256"/>
            <path id="Rectangle 2" d="M140.025 84.0833H180.519V123.5H140.025V84.0833Z"/>
            <path id="Vector 16" d="M139.865 83.8621L130.974 96.8852M125.918 104.07C125.918 104.07 119.176 99.096 130.974 96.8852M130.974 96.8852L134.344 104.07"/>
            <path id="Vector 17" d="M180.355 83.8621L188.026 95.538M193.082 102.723C193.082 102.723 199.824 97.7488 188.026 95.538M188.026 95.538L184.656 102.723"/>
        </g>
        <path id="Vector 18" d="M83.5 40.5V15"/>
    </g>
</svg>
