<svg width="171" height="171" viewBox="0 0 171 171" fill="none" xmlns="http://www.w3.org/2000/svg">
    <g id="SocRobLogo">
        <path id="Vector 3" d="M19.9626 41.785L40.0093 60.4019V111.598L19.9626 131.766H3L9.16822 151.935H19.9626V162.794L40.0093 169V152.71L59.285 133.318H110.944L130.991 151.935V169L151.037 162.794V151.935H161.061L168 130.991L151.037 131.766L130.991 111.598V60.4019L151.037 40.2336H168L161.061 20.0654H151.037V10.757L130.991 3.7757V20.0654L110.944 40.2336H59.285L40.0093 20.0654V3L19.9626 10.757V21.6168H9.16822L3 41.785H19.9626Z" stroke="#CACACA" stroke-width="2"/>
        <path id="Vector 4" d="M84 47L47 75.125H57.7917V122H110.208V75.125H121L108.667 65.75V50.125H97.875V57.1562L84 47Z" stroke="#CACACA" stroke-width="2"/>
    </g>
</svg>
