<svg width="171" height="171" viewBox="0 0 171 171" fill="none" xmlns="http://www.w3.org/2000/svg">
    <g id="Durable" clip-path="url(#clip0)">
    <path id="Vector 12" d="M161 113V128" stroke="#CACACA" stroke-width="2"/>
    <path id="Vector 10" d="M152.392 76L159.928 102.138" stroke="#CACACA" stroke-width="2"/>
    <g id="Ellipse 2">
        <mask id="path-3-inside-1" fill="white">
            <path d="M121.05 116.386C126.696 110.108 130.348 102.357 131.558 94.0825C132.767 85.8081 131.483 77.3684 127.862 69.7958C124.242 62.2233 118.441 55.8463 111.17 51.4448C103.899 47.0433 95.4728 44.8082 86.9224 45.0129C78.3721 45.2176 70.0682 47.8532 63.0264 52.5974C55.9847 57.3415 50.5104 63.9885 47.2733 71.7252C44.0361 79.4619 43.1765 87.9529 44.7994 96.1596C46.4224 104.366 50.4577 111.933 56.4116 117.933L64.236 110.519C59.7568 106.005 56.7211 100.312 55.5001 94.1385C54.2792 87.9646 54.9259 81.5768 57.3612 75.7564C59.7965 69.9361 63.9148 64.9355 69.2123 61.3665C74.5098 57.7975 80.7569 55.8147 87.1894 55.6607C93.6218 55.5067 99.9607 57.1882 105.431 60.4994C110.901 63.8107 115.265 68.6081 117.989 74.305C120.713 80.0018 121.679 86.351 120.768 92.5759C119.858 98.8008 117.111 104.632 112.864 109.355L121.05 116.386Z"/>
        </mask>
        <path d="M121.05 116.386C126.696 110.108 130.348 102.357 131.558 94.0825C132.767 85.8081 131.483 77.3684 127.862 69.7958C124.242 62.2233 118.441 55.8463 111.17 51.4448C103.899 47.0433 95.4728 44.8082 86.9224 45.0129C78.3721 45.2176 70.0682 47.8532 63.0264 52.5974C55.9847 57.3415 50.5104 63.9885 47.2733 71.7252C44.0361 79.4619 43.1765 87.9529 44.7994 96.1596C46.4224 104.366 50.4577 111.933 56.4116 117.933L64.236 110.519C59.7568 106.005 56.7211 100.312 55.5001 94.1385C54.2792 87.9646 54.9259 81.5768 57.3612 75.7564C59.7965 69.9361 63.9148 64.9355 69.2123 61.3665C74.5098 57.7975 80.7569 55.8147 87.1894 55.6607C93.6218 55.5067 99.9607 57.1882 105.431 60.4994C110.901 63.8107 115.265 68.6081 117.989 74.305C120.713 80.0018 121.679 86.351 120.768 92.5759C119.858 98.8008 117.111 104.632 112.864 109.355L121.05 116.386Z" stroke="#CACACA" stroke-width="4" mask="url(#path-3-inside-1)"/>
    </g>
        <path id="Ellipse 3" d="M113.452 82.6908C114.589 88.1406 113.946 93.8114 111.619 98.8687C109.292 103.926 105.403 108.103 100.524 110.785C95.6459 113.466 90.0353 114.511 84.5184 113.766C79.0014 113.02 73.8694 110.524 69.8775 106.643C65.8856 102.763 63.2446 97.7038 62.3432 92.2102C61.4417 86.7166 62.3273 81.0787 64.8697 76.1261C67.4121 71.1735 71.4771 67.1677 76.4665 64.6981C81.4558 62.2286 87.1061 61.4257 92.5859 62.4076L92.0494 65.4019C87.2107 64.5348 82.2215 65.2438 77.8159 67.4244C73.4102 69.605 69.8209 73.1421 67.5759 77.5153C65.3309 81.8885 64.5489 86.8668 65.3449 91.7176C66.1409 96.5685 68.4729 101.036 71.9978 104.462C75.5227 107.889 80.0542 110.093 84.9257 110.751C89.7972 111.41 94.7513 110.487 99.0592 108.119C103.367 105.751 106.801 102.063 108.856 97.5971C110.911 93.1315 111.478 88.1241 110.474 83.312L113.452 82.6908Z" fill="#C4C4C4"/>
        <path id="Ellipse 4" d="M94 88C94 90.6876 91.6144 93 88.5 93C85.3856 93 83 90.6876 83 88C83 85.3124 85.3856 83 88.5 83C91.6144 83 94 85.3124 94 88Z" stroke="#CACACA" stroke-width="2"/>
        <path id="Ellipse 8" d="M166 107C166 109.688 163.614 112 160.5 112C157.386 112 155 109.688 155 107C155 104.312 157.386 102 160.5 102C163.614 102 166 104.312 166 107Z" stroke="#CACACA" stroke-width="2"/>
        <path id="Ellipse 7" d="M20 107C20 109.688 17.6144 112 14.5 112C11.3856 112 9 109.688 9 107C9 104.312 11.3856 102 14.5 102C17.6144 102 20 104.312 20 107Z" stroke="#CACACA" stroke-width="2"/>
        <path id="Ellipse 6" d="M156 71C156 73.6876 153.614 76 150.5 76C147.386 76 145 73.6876 145 71C145 68.3124 147.386 66 150.5 66C153.614 66 156 68.3124 156 71Z" stroke="#CACACA" stroke-width="2"/>
        <path id="Ellipse 5" d="M32 71C32 73.6876 29.6144 76 26.5 76C23.3856 76 21 73.6876 21 71C21 68.3124 23.3856 66 26.5 66C29.6144 66 32 68.3124 32 71Z" stroke="#CACACA" stroke-width="2"/>
        <path id="Vector 5" d="M91 83C93.6667 79 99.3 71.1 100.5 71.5C102 72 106 75 106 76C106 76.8 105.333 78 105 78.5C102.833 81.5 98.3 87.6 97.5 88C96.7 88.4 95.1667 88.8333 94.5 89" stroke="#CACACA"/>
        <path id="Vector 6" d="M87.1509 93.1977C84.4316 97.1621 78.6943 104.987 77.4997 104.571C76.0065 104.051 72.0465 100.999 72.0597 99.9989C72.0702 99.1989 72.7527 98.0078 73.0926 97.5123C75.2988 94.5412 79.9123 88.5016 80.7175 88.1123C81.5228 87.7229 83.0617 87.3098 83.7305 87.152" stroke="#CACACA"/>
        <path id="Vector 7" d="M46 77L32 72" stroke="#CACACA" stroke-width="2"/>
        <path id="Vector 9" d="M23.8857 75.9649L16 102" stroke="#CACACA" stroke-width="2"/>
        <path id="Vector 8" d="M130 77L144.914 72" stroke="#CACACA" stroke-width="2"/>
        <path id="Vector 11" d="M14.5 112.5V127.5" stroke="#CACACA" stroke-width="2"/>
    </g>
    <!-- <defs>
        <clipPath id="clip0">
            <rect width="171" height="171" fill="white"/>
        </clipPath>
    </defs> -->
</svg>
