<svg width="200" height="171" viewBox="0 0 200 171" fill="none" xmlns="http://www.w3.org/2000/svg">
    <g id="Durable2">
        <path id="Vector 12" d="M173 156V171"  />
        <path id="Vector 10" d="M164.392 119L171.928 145.138"  />
        <g id="Ellipse 2">
            <mask id="path-3-inside-1">
            <path d="M133.05 159.386C138.696 153.108 142.348 145.357 143.558 137.083C144.767 128.808 143.483 120.368 139.862 112.796C136.242 105.223 130.441 98.8463 123.17 94.4448C115.899 90.0433 107.473 87.8082 98.9224 88.0129C90.3721 88.2176 82.0682 90.8532 75.0264 95.5974C67.9847 100.342 62.5104 106.988 59.2733 114.725C56.0361 122.462 55.1765 130.953 56.7994 139.16C58.4224 147.366 62.4577 154.933 68.4116 160.933L76.236 153.519C71.7568 149.005 68.7211 143.312 67.5001 137.138C66.2792 130.965 66.9259 124.577 69.3612 118.756C71.7965 112.936 75.9148 107.936 81.2123 104.367C86.5098 100.797 92.7569 98.8147 99.1894 98.6607C105.622 98.5067 111.961 100.188 117.431 103.499C122.901 106.811 127.265 111.608 129.989 117.305C132.713 123.002 133.679 129.351 132.768 135.576C131.858 141.801 129.111 147.632 124.864 152.355L133.05 159.386Z"/>
            </mask>
            <path d="M133.05 159.386C138.696 153.108 142.348 145.357 143.558 137.083C144.767 128.808 143.483 120.368 139.862 112.796C136.242 105.223 130.441 98.8463 123.17 94.4448C115.899 90.0433 107.473 87.8082 98.9224 88.0129C90.3721 88.2176 82.0682 90.8532 75.0264 95.5974C67.9847 100.342 62.5104 106.988 59.2733 114.725C56.0361 122.462 55.1765 130.953 56.7994 139.16C58.4224 147.366 62.4577 154.933 68.4116 160.933L76.236 153.519C71.7568 149.005 68.7211 143.312 67.5001 137.138C66.2792 130.965 66.9259 124.577 69.3612 118.756C71.7965 112.936 75.9148 107.936 81.2123 104.367C86.5098 100.797 92.7569 98.8147 99.1894 98.6607C105.622 98.5067 111.961 100.188 117.431 103.499C122.901 106.811 127.265 111.608 129.989 117.305C132.713 123.002 133.679 129.351 132.768 135.576C131.858 141.801 129.111 147.632 124.864 152.355L133.05 159.386Z"/>
        </g>
        <g id="Ellipse 3">
            <mask id="path-4-inside-2">
            <path d="M122.526 126.906C123.51 131.622 122.954 136.529 120.94 140.906C118.926 145.282 115.56 148.897 111.338 151.217C107.117 153.538 102.261 154.442 97.4871 153.797C92.7128 153.152 88.2716 150.992 84.8171 147.634C81.3626 144.276 79.0771 139.898 78.297 135.143C77.5168 130.389 78.2832 125.51 80.4834 121.224C82.6836 116.939 86.2013 113.472 90.5191 111.335C94.8368 109.198 99.7265 108.503 104.469 109.353L104.004 111.944C99.817 111.194 95.4994 111.807 91.6868 113.694C87.8742 115.581 84.768 118.642 82.8253 122.427C80.8825 126.211 80.2058 130.519 80.8946 134.717C81.5835 138.915 83.6016 142.781 86.6519 145.746C89.7023 148.711 93.6239 150.619 97.8396 151.189C102.055 151.758 106.343 150.96 110.07 148.911C113.798 146.861 116.77 143.67 118.548 139.805C120.327 135.941 120.818 131.607 119.949 127.443L122.526 126.906Z"/>
            </mask>
            <path d="M122.526 126.906C123.51 131.622 122.954 136.529 120.94 140.906C118.926 145.282 115.56 148.897 111.338 151.217C107.117 153.538 102.261 154.442 97.4871 153.797C92.7128 153.152 88.2716 150.992 84.8171 147.634C81.3626 144.276 79.0771 139.898 78.297 135.143C77.5168 130.389 78.2832 125.51 80.4834 121.224C82.6836 116.939 86.2013 113.472 90.5191 111.335C94.8368 109.198 99.7265 108.503 104.469 109.353L104.004 111.944C99.817 111.194 95.4994 111.807 91.6868 113.694C87.8742 115.581 84.768 118.642 82.8253 122.427C80.8825 126.211 80.2058 130.519 80.8946 134.717C81.5835 138.915 83.6016 142.781 86.6519 145.746C89.7023 148.711 93.6239 150.619 97.8396 151.189C102.055 151.758 106.343 150.96 110.07 148.911C113.798 146.861 116.77 143.67 118.548 139.805C120.327 135.941 120.818 131.607 119.949 127.443L122.526 126.906Z"/>
        </g>
        <path id="Ellipse 4" d="M106 131.5C106 133.905 103.845 136 101 136C98.1549 136 96 133.905 96 131.5C96 129.095 98.1549 127 101 127C103.845 127 106 129.095 106 131.5Z"  />
        <path id="Ellipse 8" d="M178 150C178 152.688 175.614 155 172.5 155C169.386 155 167 152.688 167 150C167 147.312 169.386 145 172.5 145C175.614 145 178 147.312 178 150Z"  />
        <path id="Ellipse 7" d="M32 150C32 152.688 29.6144 155 26.5 155C23.3856 155 21 152.688 21 150C21 147.312 23.3856 145 26.5 145C29.6144 145 32 147.312 32 150Z"  />
        <path id="Ellipse 6" d="M168 114C168 116.688 165.614 119 162.5 119C159.386 119 157 116.688 157 114C157 111.312 159.386 109 162.5 109C165.614 109 168 111.312 168 114Z"  />
        <path id="Ellipse 5" d="M44 114C44 116.688 41.6144 119 38.5 119C35.3856 119 33 116.688 33 114C33 111.312 35.3856 109 38.5 109C41.6144 109 44 111.312 44 114Z"  />
        <path id="Vector 5" d="M103 126.861C105.311 123.436 110.193 116.67 111.233 117.013C112.533 117.441 116 120.01 116 120.866C116 121.552 115.422 122.579 115.133 123.008C113.256 125.577 109.327 130.801 108.633 131.144C107.94 131.486 106.611 131.857 106.033 132" />
        <path id="Vector 6" d="M99.7652 135.998C97.4119 139.429 92.447 146.2 91.4132 145.84C90.121 145.391 86.6941 142.749 86.7055 141.884C86.7146 141.191 87.3052 140.161 87.5994 139.732C89.5085 137.161 93.5011 131.934 94.1979 131.597C94.8947 131.26 96.2265 130.903 96.8052 130.766" />
        <path id="Vector 7" d="M58 120L44 115"  />
        <path id="Vector 9" d="M35.8857 118.965L28 145"  />
        <path id="Vector 8" d="M142 120L156.914 115"  />
        <path id="Vector 11" d="M26.5 155.5V170.5"  />
    </g>
</svg>
