<svg width="171" height="171" viewBox="0 0 171 171" fill="none" xmlns="http://www.w3.org/2000/svg">
    <g id="SciRoc2">
        <path id="Vector 13" d="M0 124H12.7972V89.1392L35.1923 64.5316V111.696H24.3147V98.0253L55.028 64.5316L82.542 98.0253V119.899H68.465V40.6076H101.098V106.911H90V32L118.374 16V124H183"/>
        <g id="Robot">
            <rect id="Rectangle 1" x="133.184" y="77.25" width="26.4386" height="20" rx="3.5"/>
            <path id="Ellipse 9" d="M162.851 87.25C162.851 88.6443 162.589 89.8823 162.188 90.7529C161.767 91.6662 161.286 92 160.93 92C160.873 92 160.849 91.9861 160.83 91.9705C160.802 91.9472 160.754 91.8911 160.704 91.7659C160.6 91.5047 160.542 91.0858 160.525 90.51C160.508 89.946 160.532 89.2884 160.561 88.5755C160.563 88.5169 160.565 88.458 160.568 88.3987C160.595 87.7437 160.623 87.0511 160.623 86.375C160.623 85.6355 160.589 84.9878 160.56 84.4418C160.531 83.886 160.509 83.4587 160.524 83.1238C160.541 82.7755 160.597 82.6326 160.639 82.5767C160.639 82.5763 160.64 82.5759 160.64 82.5755C160.653 82.5581 160.696 82.5 160.93 82.5C161.286 82.5 161.767 82.8338 162.188 83.7471C162.589 84.6177 162.851 85.8557 162.851 87.25Z" />
            <path id="Ellipse 10" d="M132.184 87.25C132.184 87.9575 132.215 88.6318 132.243 89.2374C132.244 89.2639 132.245 89.2902 132.247 89.3164C132.276 89.9498 132.299 90.4936 132.282 90.9441C132.266 91.4081 132.207 91.6961 132.124 91.8565C132.087 91.9265 132.055 91.9544 132.033 91.9677C132.012 91.9807 131.969 92 131.877 92C131.521 92 131.04 91.6662 130.619 90.7529C130.218 89.8823 129.956 88.6443 129.956 87.25C129.956 85.8557 130.218 84.6177 130.619 83.7471C131.04 82.8338 131.521 82.5 131.877 82.5C131.969 82.5 132.012 82.5193 132.033 82.5323C132.055 82.5456 132.087 82.5735 132.124 82.6435C132.207 82.8039 132.266 83.0919 132.282 83.5559C132.299 84.0064 132.276 84.5502 132.247 85.1836C132.245 85.2098 132.244 85.2361 132.243 85.2626C132.215 85.8682 132.184 86.5425 132.184 87.25Z"/>
            <ellipse id="Ellipse 11" cx="145.596" cy="64.5" rx="3.22807" ry="3.5"/>
            <path id="Vector 14" d="M145.596 65.375V77.625"/>
            <ellipse id="Ellipse 12" cx="140.754" cy="83.75" rx="3.22807" ry="3.5"/>
            <ellipse id="Ellipse 13" cx="152.053" cy="83.75" rx="3.22807" ry="3.5"/>
            <path id="Vector 15" d="M139.14 92.5H153.667"/>
            <path id="Rectangle 2" d="M133.184 98.25H159.623V123.5H133.184V98.25Z"/>
            <path id="Vector 16" d="M133.491 98.625L127.611 107.083M124.268 111.75C124.268 111.75 119.81 108.519 127.611 107.083M127.611 107.083L129.84 111.75"/>
            <path id="Vector 17" d="M159.316 98.625L164.389 106.208M167.732 110.875C167.732 110.875 172.19 107.644 164.389 106.208M164.389 106.208L162.16 110.875"/>
        </g>
        <path id="Vector 18" d="M83.5 40.5V15"/>
    </g>
</svg>
