<svg width="200" height="171" viewBox="0 0 200 171" fill="none" xmlns="http://www.w3.org/2000/svg">
    <g id="SciRoc3">
        <path id="Vector 13" d="M0 170H12.7972V135.139L35.1923 110.532V157.696H24.3147V144.025L55.028 110.532L82.542 144.025V165.899H68.465V86.6076H101.098V152.911H90V78L118.374 62V170H183" />
        <g id="Robot">
            <rect id="Rectangle 1" x="142.025" y="97.75" width="40.4939" height="31.3333" rx="3.5" />
            <path id="Ellipse 9" d="M187.401 113.417C187.401 115.594 187 117.542 186.373 118.926C185.725 120.356 184.933 121 184.24 121C184.099 121 184.006 120.96 183.929 120.895C183.842 120.822 183.748 120.692 183.662 120.472C183.486 120.022 183.397 119.336 183.371 118.444C183.346 117.565 183.382 116.542 183.425 115.446C183.429 115.356 183.433 115.266 183.436 115.175C183.477 114.165 183.519 113.104 183.519 112.069C183.519 110.939 183.469 109.948 183.425 109.108L183.425 109.104C183.381 108.256 183.346 107.583 183.371 107.05C183.396 106.504 183.483 106.211 183.598 106.055C183.682 105.942 183.832 105.833 184.24 105.833C184.933 105.833 185.725 106.477 186.373 107.907C187 109.291 187.401 111.239 187.401 113.417Z" />
            <path id="Ellipse 10" d="M141.025 113.417C141.025 114.499 141.072 115.532 141.114 116.465C141.116 116.506 141.118 116.546 141.12 116.586C141.163 117.558 141.199 118.407 141.174 119.115C141.148 119.835 141.06 120.332 140.904 120.637C140.831 120.779 140.752 120.862 140.672 120.912C140.594 120.962 140.481 121 140.305 121C139.612 121 138.819 120.356 138.172 118.926C137.545 117.542 137.144 115.594 137.144 113.417C137.144 111.239 137.545 109.291 138.172 107.907C138.819 106.477 139.612 105.833 140.305 105.833C140.481 105.833 140.594 105.872 140.672 105.921C140.752 105.971 140.831 106.054 140.904 106.196C141.06 106.501 141.148 106.998 141.174 107.719C141.199 108.426 141.163 109.276 141.12 110.248C141.118 110.288 141.116 110.328 141.114 110.368C141.072 111.301 141.025 112.334 141.025 113.417Z" />
            <ellipse id="Ellipse 11" cx="161.052" cy="78.3889" rx="4.88164" ry="5.38889" />
            <path id="Vector 14" d="M161.052 79.7361V98.5972" />
            <ellipse id="Ellipse 12" cx="153.73" cy="108.028" rx="4.88164" ry="5.38889" />
            <ellipse id="Ellipse 13" cx="170.815" cy="108.028" rx="4.88164" ry="5.38889" />
            <path id="Vector 15" d="M151.289 121.5H173.256" />
            <path id="Rectangle 2" d="M142.025 130.083H182.519V169.5H142.025V130.083Z" />
            <path id="Vector 16" d="M141.865 129.862L132.974 142.885M127.918 150.07C127.918 150.07 121.176 145.096 132.974 142.885M132.974 142.885L136.344 150.07" />
            <path id="Vector 17" d="M182.355 129.862L190.026 141.538M195.082 148.723C195.082 148.723 201.824 143.749 190.026 141.538M190.026 141.538L186.656 148.723" />
        </g>
        <path id="Vector 18" d="M85.5 86.5V61" />
    </g>
</svg>
