<svg width="200" height="171" viewBox="0 0 200 171" fill="none" xmlns="http://www.w3.org/2000/svg">
    <g id="SocRob">
        <g id="logo">
            <path id="Vector 24" d="M45.8196 136.655V119.397H38.4655L58.265 103.866L66.1848 110.194V106.167H70.7104V114.796L76.9331 119.397H69.0133V136.655H45.8196Z"/>
            <path id="Vector 25" d="M90.5099 136.655H106.915C107.82 136.655 101.258 147.776 97.864 153.337H90.5099V161.39C90.5099 162.311 79.9502 167.143 74.6703 169.444V153.337L66.1848 145.859H49.2138L41.2941 153.337V169.444C41.2941 171.745 29.9801 164.266 24.3231 160.24V153.337H18.1004C15.8376 153.337 11.1234 142.215 9.0492 136.655H24.3231L32.8086 128.601V112.495L24.3231 104.441H9.0492C6.7864 104.441 14.1405 93.7033 18.1004 88.3343H24.3231V82.0067C24.3231 80.1659 35.6371 75.1037 41.2941 72.8028V88.3343L49.2138 95.8125H66.1848L74.6703 88.3343V72.8028C74.6703 69.5814 85.23 76.8295 90.5099 80.8562V88.3343H97.864C100.579 88.3343 105.03 99.0722 106.915 104.441H90.5099L82.5901 112.495V128.601L90.5099 136.655Z"/>
        </g>
    </g>
</svg>
