<svg width="200" height="171" viewBox="0 0 200 171" fill="none" xmlns="http://www.w3.org/2000/svg">
    <g id="SocRob">
        <g id="logo">
            <path id="Vector 24" d="M34.5 141V126H28L45.5 112.5L52.5 118V114.5H56.5V122L62 126H55V141H34.5Z"/>
            <path id="Vector 25" d="M74 141H88.5C89.3 141 83.5 150.667 80.5 155.5H74V162.5C74 163.3 64.6667 167.5 60 169.5V155.5L52.5 149H37.5L30.5 155.5V169.5C30.5 171.5 20.5 165 15.5 161.5V155.5H10C8.00002 155.5 3.83335 145.833 2.00001 141H15.5L23 134V120L15.5 113H2.00001C1.3113e-05 113 6.50001 103.667 10 99H15.5V93.5C15.5 91.9 25.5 87.5 30.5 85.5V99L37.5 105.5H52.5L60 99V85.5C60 82.7 69.3334 89 74 92.5V99H80.5C82.9 99 86.8334 108.333 88.5 113H74L67 120V134L74 141Z"/>
        </g>
    </g>
</svg>
