<svg width="200" height="171" viewBox="0 0 200 171" fill="none" xmlns="http://www.w3.org/2000/svg">
    <g id="SocRob">
        <g id="logo">
            <path id="Vector 24" d="M89.5 141V126H83L100.5 112.5L107.5 118V114.5H111.5V122L117 126H110V141H89.5Z"/>
            <path id="Vector 25" d="M129 141H143.5C144.3 141 138.5 150.667 135.5 155.5H129V162.5C129 163.3 119.667 167.5 115 169.5V155.5L107.5 149H92.5L85.5 155.5V169.5C85.5 171.5 75.5 165 70.5 161.5V155.5H65C63 155.5 58.8334 145.833 57 141H70.5L78 134V120L70.5 113H57C55 113 61.5 103.667 65 99H70.5V93.5C70.5 91.9 80.5 87.5 85.5 85.5V99L92.5 105.5H107.5L115 99V85.5C115 82.7 124.333 89 129 92.5V99H135.5C137.9 99 141.833 108.333 143.5 113H129L122 120V134L129 141Z"/>
        </g>
    </g>
</svg>
